<svg xmlns="http://www.w3.org/2000/svg" version="1.1" xmlns:xlink="http://www.w3.org/1999/xlink" xmlns:svgjs="http://svgjs.dev/svgjs" width="1000" height="1125" viewBox="0 0 1000 1125"><g transform="matrix(1,0,0,1,1.7053025658242404e-13,0)"><svg viewBox="0 0 320 360" data-background-color="#ffffff" preserveAspectRatio="xMidYMid meet" height="1125" width="1000" xmlns="http://www.w3.org/2000/svg" xmlns:xlink="http://www.w3.org/1999/xlink"><g id="tight-bounds" transform="matrix(1,0,0,1,0,0)"><svg viewBox="0 0 320 360" height="360" width="320"><g><svg></svg></g><g><svg viewBox="0 0 320 360" height="360" width="320"><g><path xmlns="http://www.w3.org/2000/svg" d="M20.961 227.22l3.726 4.658-1.863-6.056c-0.466-2.795-3.726 0.466-1.863 1.398M25.153 224.425c1.397 2.329 2.795 4.658 2.795 6.987 0 3.261 2.795 4.658 5.123 5.589-3.261-3.726-5.124-13.974-7.918-12.576M204.017 26.929c7.918 0 15.371-0.932 23.756 0.931 20.495 5.124 37.729 15.371 49.374 29.811l32.606 52.169c1.397 13.042 4.192 27.482 3.726 43.319 3.261 0 2.795-4.658 6.521-5.59-3.726 9.316-5.59 20.961-6.521 34.469-2.329-7.453 0-18.632 0.466-24.687-3.261 5.124-5.124 1.397-5.124-0.932 0.466-3.726-1.397-3.261-2.795-4.658-5.124-4.658-8.384-9.782-12.11-17.7 2.329-6.055 2.795-14.905-4.658-19.563-2.329-1.397-5.124-3.726-6.521-7.453-1.863-5.124-5.124-11.179-4.193-19.097 0.466-2.329-6.987 5.124-11.179 1.863-18.166-12.576-36.332-27.016-58.224-39.127-11.645 0-20.029-4.192-24.221-9.316-3.726-4.658-0.932-10.713 4.658-11.179 3.261 0 6.987-0.932 9.782 0.932 0.466-1.863 2.329-4.192 4.657-4.192M157.904 16.215l0.932 0.466c4.658 0.932 6.987 7.453 12.11 5.124 0 3.261 0.466 6.521-0.466 8.85-1.397 3.726-5.59 3.726-8.85 3.726-31.208-1.863-49.374 11.179-68.471 22.358-5.124 3.261-10.713 5.59-14.906 9.782-20.029 18.632-41.921 35.866-47.045 70.335l-4.192 38.195c-0.466 4.192-5.124 8.384-4.192 13.508l3.26 22.824c-3.261-3.261-5.124 0.932-4.192 2.795 0.466 1.397 2.329 6.055 5.124 1.863 3.726 6.987 7.453 20.495 12.576 26.55 15.837 18.632 36.332 35.4 53.101 52.169 4.192-0.932 7.453-0.932 8.384-3.727 1.397 2.795-1.397 5.59-3.726 6.056 7.453 4.658 15.837 8.85 27.016 9.781 14.44 0.932 27.948 3.261 40.524 6.522 6.521-1.863 13.042-2.795 20.029-3.261 2.329 0 3.726-3.726 6.521-4.658l0.466-4.658c2.795 4.192 2.329-1.397 0.466-4.192 3.261 2.795 4.192 5.124 5.589 6.987 0-1.397 3.726-6.521 3.727-0.466l0.931-6.055c1.397-0.932 1.863 5.124 3.261 0.931 1.397-4.192 4.192-0.932 6.987-2.329-0.932 1.863-0.466 5.59 2.794 3.261l3.727-3.261c2.329 5.59 6.055 3.261 7.918 2.329 20.495-13.042 40.99-28.413 60.553-43.784l-0.466 6.055 2.329-7.453c2.329 2.329 4.192 0.466 5.124-0.931 2.795-4.658 6.521-9.316 12.577-13.508-7.453 20.029-16.303 35.866-27.482 48.908l-4.658 5.59c0 3.261-0.932 7.453-4.658 7.918-1.863 0.466-5.59-0.932-8.384 1.863-1.397 1.863 3.261 5.59-0.466 2.795-3.261-2.329-6.521 0-10.248 0.932-2.795 0.932 1.863 3.726 2.795 5.589 0.932 1.863 1.863 3.726 1.398 6.056l-5.124-5.59c-6.055 3.261-9.782 9.316-14.906 13.974-2.329 1.863-1.397 5.124-1.397 7.918-3.261 0-6.987-0.932-8.85 0.932-1.397 1.863-0.932 4.658-0.932 7.453-4.658-0.466-5.124-7.453-9.315-6.056-4.192 0.932-8.85 1.397-12.577 3.727 2.795 5.59-4.658 2.329-3.726 3.26-6.987-4.192-13.042-7.453-20.495-4.658-15.837-5.124-35.4-2.795-49.84-0.931 0-2.329 0.466-4.658-0.466-5.124-0.932 2.329-3.726 1.397-3.26 1.397-8.85-6.055-17.7-9.782-27.016-14.905-8.384 0.932-16.303-3.261-18.632-5.59-6.521-6.055-13.974-2.795-20.029-4.192-13.042-3.261-17.7-16.769-19.098-26.084-0.932-4.658-4.658-6.521-6.055-6.056-6.055-19.563-15.371-37.263-22.824-55.429-1.863-4.658-1.397-9.316-1.397-14.44 2.329 0.932 4.658 0.466 4.192-2.794-2.329-15.371-7.918-27.016-13.974-38.195 3.261-15.837 3.726-34.469 11.179-48.443 6.521-12.576 18.632-19.098 27.016-29.811 2.795-3.726 2.795-8.85 5.59-12.11 9.316-9.316 18.632-19.098 28.879-27.482 4.658-3.726 10.247 0 17.234-1.397 2.329-8.384 11.645-15.837 20.495-13.508 3.726 0.932 11.179-8.85 13.508-9.782 3.726-1.397 1.863 3.726 1.863 6.987 8.85-6.987 20.961-10.713 32.14-14.906" fill="#ea3c12" fill-rule="nonzero" stroke="none" stroke-width="1" stroke-linecap="butt" stroke-linejoin="miter" stroke-miterlimit="10" stroke-dasharray="" stroke-dashoffset="0" font-family="none" font-weight="none" font-size="none" text-anchor="none" style="mix-blend-mode: normal" data-fill-palette-color="tertiary"></path></g><g transform="matrix(1,0,0,1,64,131.76172090457806)"><svg viewBox="0 0 192 96.4765581908439" height="96.4765581908439" width="192"><g><svg viewBox="0 0 192 96.4765581908439" height="96.4765581908439" width="192"><g><svg viewBox="0 0 192 96.4765581908439" height="96.4765581908439" width="192"><g><svg viewBox="0 0 192 96.4765581908439" height="96.4765581908439" width="192"><g><svg viewBox="0 0 192 96.4765581908439" height="96.4765581908439" width="192"><g><svg viewBox="0 0 192 96.4765581908439" height="96.4765581908439" width="192"><g transform="matrix(1,0,0,1,0,0)"><svg width="192" viewBox="-2.25 -35.95000076293945 90.6500015258789 45.55000305175781" height="96.4765581908439" data-palette-color="#ea3c12"><path d="M10.2-27.65L10.15-7.3 10.1-3.45Q10.1 2.25 7.03 5.93 3.95 9.6-0.25 9.6L-0.25 9.6Q-2.25 9.6-2.25 7.7L-2.25 7.7Q-2.25 6.95-1.68 5.95-1.1 4.95-0.75 4.95-0.4 4.95 0.38 5.8 1.15 6.65 2.2 6.65L2.2 6.65Q4.95 6.65 5.65 2.75L5.65 2.75Q6.3-0.65 6.3-2.25L6.3-2.25 6.3-8.15 6.25-9.45Q6.25-10.45 6.23-11.2 6.2-11.95 6.2-12.8L6.2-12.8Q6.1-15.35 6.1-22.53 6.1-29.7 5.93-31.18 5.75-32.65 4.58-33.25 3.4-33.85 2.2-33.9 1-33.95 1-34.8 1-35.65 2.45-35.65L2.45-35.65Q2.95-35.65 4.73-35.5 6.5-35.35 8.1-35.35L8.1-35.35Q8.1-35.35 12.15-35.4L12.15-35.4Q13.55-35.4 13.55-34.75L13.55-34.75Q13.55-34.3 11.25-33.35L11.25-33.35Q10.2-32.95 10.2-29.95L10.2-29.95 10.2-27.65ZM20.35-5.65L20.4-21.4 20.35-29.85Q20.35-31.7 19.6-32.68 18.85-33.65 17.92-33.77 17-33.9 16.25-34.1 15.5-34.3 15.5-34.8L15.5-34.8Q15.5-35.6 16.95-35.6L16.95-35.6 25.25-35.6 30.25-35.75Q34.75-35.75 37.95-33.48 41.15-31.2 41.15-27.35L41.15-27.35Q41.15-24.8 40.17-22.88 39.2-20.95 38.02-20.1 36.85-19.25 35.87-18.63 34.9-18 34.9-17.8L34.9-17.8Q34.9-17.2 39.1-11.33 43.3-5.45 44.85-3.8L44.85-3.8Q46.75-1.45 49.45-1.45L49.45-1.45Q50.15-1.45 50.15-0.85L50.15-0.85Q50.15-0.1 49.55 0.15 48.95 0.4 46.52 0.4 44.1 0.4 42.15-0.75L42.15-0.75Q39.45-2.3 33.2-12.75L33.2-12.75Q30.8-16.65 29.5-16.65L29.5-16.65 25.4-16.65Q24.8-16.65 24.67-16.15 24.55-15.65 24.55-13.2L24.55-13.2Q24.55-13.2 24.55-9.15L24.55-9.15 24.6-6.5Q24.6-6.5 24.6-6.05L24.6-6.05Q24.6-4 25.55-2.88 26.5-1.75 27.67-1.58 28.85-1.4 29.8-1.18 30.75-0.95 30.75-0.45L30.75-0.45Q30.75 0.35 29.85 0.35L29.85 0.35Q29.85 0.35 22.7 0L22.7 0 17.2 0.2Q16.15 0.2 16.15-0.6L16.15-0.6Q16.15-1.45 18.25-1.7L18.25-1.7Q19.05-1.8 19.7-2.8 20.35-3.8 20.35-5.65L20.35-5.65ZM24.55-28.2L24.55-26.8Q24.55-21.65 24.6-20.43 24.65-19.2 24.95-19L24.95-19Q25.7-18.55 27.1-18.55L27.1-18.55 29.05-18.55Q33.3-18.55 35.12-20.5 36.95-22.45 36.95-25.53 36.95-28.6 34.52-31.15 32.1-33.7 27.2-33.7L27.2-33.7Q25.35-33.7 24.95-32.73 24.55-31.75 24.55-28.2L24.55-28.2ZM77.3-18.5L82.84-18.25 86.84-18.3 87.59-18.3Q88.4-18.3 88.4-17.85L88.4-17.85Q88.4-17.5 87.12-16.95 85.84-16.4 85.69-15.55L85.69-15.55Q85.34-13.4 85.34-10.93 85.34-8.45 85.4-7.3 85.44-6.15 85.47-5.68 85.5-5.2 85.55-4.85 85.59-4.5 85.59-4.3 85.59-4.1 85.22-3.98 84.84-3.85 84-3.63 83.15-3.4 82.44-2.98 81.75-2.55 81.4-2.35 81.05-2.15 80.47-1.85 79.9-1.55 79.3-1.25 78.69-0.95 77.94-0.63 77.19-0.3 76.4-0.05 75.59 0.2 74.75 0.4L74.75 0.4Q72.84 0.85 71.15 0.85L71.15 0.85Q65.69 0.85 61.67-0.63 57.65-2.1 55.45-4.6L55.45-4.6Q51.15-9.55 51.15-16.45L51.15-16.45Q51.15-21.9 53.32-26.25 55.5-30.6 60-33.27 64.5-35.95 70.69-35.95L70.69-35.95Q76.65-35.95 81-33.7L81-33.7Q82-33.15 82.52-32.77 83.05-32.4 83.17-32.4 83.3-32.4 83.82-32.77 84.34-33.15 84.55-33.15L84.55-33.15Q85.3-33.15 85.32-31.93 85.34-30.7 85.52-29.1 85.69-27.5 85.84-26.45 86-25.4 86-25.2L86-25.2Q86-24.35 85.4-24.35 84.8-24.35 84.55-24.95L84.55-24.95Q82.8-28.75 78.69-31.38 74.59-34 70.25-34L70.25-34Q64-34 59.92-30.08 55.84-26.15 55.84-19.2L55.84-19.2Q55.84-14.6 57.55-10.55 59.25-6.5 62.72-3.85 66.19-1.2 70.37-1.2 74.55-1.2 77.67-2.95 80.8-4.7 81.15-6.95L81.15-6.95Q81.3-8.15 81.3-13.25L81.3-13.25Q81.3-15.2 80.57-15.93 79.84-16.65 78.3-16.82 76.75-17 76.57-17.32 76.4-17.65 76.4-17.95L76.4-17.95Q76.4-18.5 77.3-18.5L77.3-18.5Z" opacity="1" transform="matrix(1,0,0,1,0,0)" fill="#ea3c12" class="undefined-text-0" data-fill-palette-color="primary" id="text-0"></path></svg></g></svg></g></svg></g></svg></g><g></g></svg></g></svg></g></svg></g></svg></g><defs></defs></svg><rect width="320" height="360" fill="none" stroke="none" visibility="hidden"></rect></g></svg></g></svg>